<?xml version="1.0" ?><svg viewBox="0 0 32 32" xmlns="http://www.w3.org/2000/svg"><defs><style>.cls-1{fill:#030303;}.cls-2{fill:none;}</style></defs><title/><g data-name="Layer 2" id="Layer_2"><g data-name="Layer 4" id="Layer_4"><path class="cls-1" d="M16,27.25a3,3,0,0,1-2.12-.88L5.06,17.56A7.5,7.5,0,0,1,15.67,7l.33.33L16.33,7A7.5,7.5,0,0,1,26.94,17.56l-8.82,8.81A3,3,0,0,1,16,27.25ZM10.37,6.75a5.5,5.5,0,0,0-3.89,9.39L15.29,25a1,1,0,0,0,1.42,0l8.81-8.82a5.5,5.5,0,0,0-7.78-7.78l-1,1a1,1,0,0,1-1.42,0l-1-1A5.49,5.49,0,0,0,10.37,6.75Z"/><rect class="cls-2" height="32" width="32"/></g></g></svg>